Coordinates
version=1
nRows=15
nColumns=46
inDegrees=yes

Units are S.I. units (second, meters, Newtons, ...)
Angles are in degrees.

endheader
time	pelvis_tilt	pelvis_list	pelvis_rotation	pelvis_tx	pelvis_ty	pelvis_tz	bb_angle	bb_tx	bb_ty	bb_tz	hip_flexion_r	hip_adduction_r	hip_rotation_r	knee_angle_r	knee_angle_r_beta	ankle_angle_r	subtalar_angle_r	mtp_angle_r	crank_angle_r	hip_flexion_l	hip_adduction_l	hip_rotation_l	knee_angle_l	knee_angle_l_beta	ankle_angle_l	subtalar_angle_l	mtp_angle_l	crank_angle_l	lumbar_extension	lumbar_bending	lumbar_rotation	arm_flex_r	arm_add_r	arm_rot_r	elbow_flex_r	pro_sup_r	wrist_flex_r	wrist_dev_r	arm_flex_l	arm_add_l	arm_rot_l	elbow_flex_l	pro_sup_l	wrist_flex_l	wrist_dev_l
      0.00000000	    -32.17070944	     -1.15662331	     -3.31519266	      0.06275888	      0.98994862	     -0.21051345	      0.00000000	      0.50000000	      0.00000000	      0.25000000	     98.10211199	     -3.13616132	     -1.75029460	     79.97768470	      1.39587393	     13.41141868	     -3.07118026	      0.00000000	      0.00000000	     69.71684786	    -11.89765432	     -1.48433773	     73.45752118	      1.28207560	     -8.93129279	     -9.78982462	      0.00000000	      0.00000000	    -33.54409850	     -0.76633213	      3.94736904	     89.28880325	     -6.23413452	     45.21881328	     28.64279383	     35.12805003	      0.00000000	      0.00000000	     88.83407361	    -10.69233777	     48.71651622	     32.76698912	     36.18716700	      0.00000000	      0.00000000
      0.00500000	    -32.16966865	     -1.15292171	     -3.33617149	      0.06280363	      0.98996937	     -0.21057517	      0.00000000	      0.50000000	      0.00000000	      0.25000000	     98.03685417	     -3.12944024	     -1.77991946	     79.88200528	      1.39420401	     13.51494398	     -3.13665911	      0.00000000	      0.00000000	     69.71861643	    -11.91031226	     -1.48260533	     73.49356452	      1.28270468	     -8.85610706	     -9.72129321	      0.00000000	      0.00000000	    -33.53256623	     -0.76282674	      3.96938212	     89.28216434	     -6.18906319	     45.13018953	     28.54856321	     35.45954973	      0.00000000	      0.00000000	     88.83756560	    -10.68748087	     48.72873574	     32.63517678	     36.62124214	      0.00000000	      0.00000000
      0.01000000	    -32.16285157	     -1.10960924	     -3.31557539	      0.06273752	      0.98995764	     -0.21069213	      0.00000000	      0.50000000	      0.00000000	      0.25000000	     98.00093300	     -3.16279263	     -1.74525675	     79.82043774	      1.39312945	     13.56747639	     -3.01908060	      0.00000000	      0.00000000	     69.73635831	    -11.84517129	     -1.52441921	     73.53139116	      1.28336488	     -9.08253082	    -10.09726926	      0.00000000	      0.00000000	    -33.56526595	     -0.79280508	      3.96871671	     89.27487850	     -6.17876167	     44.49313984	     28.58627549	     35.83760577	      0.00000000	      0.00000000	     88.80530086	    -10.56614764	     48.14359235	     32.68790293	     37.03683840	      0.00000000	      0.00000000
      0.01500000	    -32.14115776	     -1.12232298	     -3.37416316	      0.06272634	      0.98996919	     -0.21074857	      0.00000000	      0.50000000	      0.00000000	      0.25000000	     97.92370957	     -3.11606922	     -1.77212372	     79.73945670	      1.39171606	     13.63167691	     -2.92363469	      0.00000000	      0.00000000	     69.72334658	    -11.91052557	     -1.55843648	     73.58137865	      1.28423733	     -9.12277040	    -10.23728559	      0.00000000	      0.00000000	    -33.61284258	     -0.78984558	      4.02953506	     89.27191839	     -6.13037130	     44.02903828	     28.61221277	     36.14552246	      0.00000000	      0.00000000	     88.75668637	    -10.53066885	     47.58924271	     32.80602015	     37.36821309	      0.00000000	      0.00000000
      0.02000000	    -32.19883559	     -1.24532114	     -3.44011580	      0.06265415	      0.98951264	     -0.21061372	      0.00000000	      0.50000000	      0.00000000	      0.25000000	     97.97784304	     -3.02305392	     -1.85970630	     79.73820957	      1.39169430	     13.60942279	     -3.11311750	      0.00000000	      0.00000000	     69.78817000	    -12.03619186	     -1.39677769	     73.61205702	      1.28477276	     -8.80368520	     -9.46450622	      0.00000000	      0.00000000	    -33.48946513	     -0.67686903	      4.12267926	     89.28405710	     -5.86887584	     44.46651253	     27.68946736	     37.24357867	      0.00000000	      0.00000000	     88.80014515	    -10.40619936	     47.89204943	     31.92285105	     38.49137899	      0.00000000	      0.00000000
      0.02500000	    -32.17879640	     -1.15955696	     -3.39898481	      0.06263338	      0.98953370	     -0.21071044	      0.00000000	      0.50000000	      0.00000000	      0.25000000	     97.95392815	     -3.07263092	     -1.73415044	     79.74413735	      1.39179776	     13.65555604	     -2.96526421	      0.00000000	      0.00000000	     69.74903123	    -11.92328370	     -1.47889111	     73.57943067	      1.28420333	     -9.11279513	     -9.94415966	      0.00000000	      0.00000000	    -33.52489990	     -0.76474647	      4.04825504	     89.28706796	     -5.99156140	     44.46477700	     27.86404336	     37.32210903	      0.00000000	      0.00000000	     88.78404399	    -10.41166672	     47.69753525	     32.19651744	     38.63651516	      0.00000000	      0.00000000
      0.03000000	    -32.17577531	     -1.17616640	     -3.43840878	      0.06264494	      0.98951136	     -0.21066805	      0.00000000	      0.50000000	      0.00000000	      0.25000000	     97.89743047	     -3.02444973	     -1.79058319	     79.64251383	      1.39002409	     13.66302922	     -3.12054543	      0.00000000	      0.00000000	     69.75527038	    -11.97340560	     -1.45879497	     73.63361802	      1.28514907	     -8.93900828	     -9.67722448	      0.00000000	      0.00000000	    -33.51399792	     -0.75768142	      4.07370685	     89.29378470	     -6.38768975	     45.99103757	     28.16332879	     37.76509828	      0.00000000	      0.00000000	     88.84968668	    -10.80670578	     48.84582411	     32.36222192	     39.39667959	      0.00000000	      0.00000000
      0.03500000	    -32.17390883	     -1.15675168	     -3.44093158	      0.06263917	      0.98946742	     -0.21069689	      0.00000000	      0.50000000	      0.00000000	      0.25000000	     97.87570917	     -3.02438802	     -1.77381684	     79.60110956	      1.38930145	     13.66985164	     -3.07403592	      0.00000000	      0.00000000	     69.76604276	    -11.96372406	     -1.47258718	     73.67619730	      1.28589222	     -8.94375259	     -9.69118170	      0.00000000	      0.00000000	    -33.51317835	     -0.77127859	      4.07786171	     89.29244681	     -6.38093429	     45.86312417	     28.13960426	     37.79754402	      0.00000000	      0.00000000	     88.84224844	    -10.73977760	     48.71054432	     32.23037161	     39.65586445	      0.00000000	      0.00000000
      0.04000000	    -32.19796446	     -1.18455992	     -3.51012550	      0.06259941	      0.98929639	     -0.21056191	      0.00000000	      0.50000000	      0.00000000	      0.25000000	     97.89301430	     -2.94730551	     -1.81224591	     79.57926831	      1.38892025	     13.60533672	     -3.07432547	      0.00000000	      0.00000000	     69.84377631	    -12.08352467	     -1.48807542	     73.79033877	      1.28788437	     -8.89746569	     -9.57694243	      0.00000000	      0.00000000	    -33.47141201	     -0.78063994	      4.19128401	     89.29309094	     -6.36362468	     45.64181083	     28.04325484	     37.99949123	      0.00000000	      0.00000000	     88.82158742	    -10.59338175	     48.47706421	     31.99416627	     39.90357801	      0.00000000	      0.00000000
      0.04500000	    -32.16024703	     -1.23172411	     -3.48212998	      0.06261242	      0.98955793	     -0.21075776	      0.00000000	      0.50000000	      0.00000000	      0.25000000	     97.76685754	     -2.98208789	     -1.84993304	     79.46958250	      1.38700587	     13.68963518	     -3.00513990	      0.00000000	      0.00000000	     69.79747673	    -12.02664139	     -1.42955382	     73.73827426	      1.28697567	     -9.14792814	    -10.02579597	      0.00000000	      0.00000000	    -33.59537030	     -0.69075354	      4.20870054	     89.28116282	     -6.28690106	     44.90012762	     28.29501859	     38.15726940	      0.00000000	      0.00000000	     88.76195475	    -10.52564436	     47.54024285	     32.43564742	     40.02781296	      0.00000000	      0.00000000
      0.05000000	    -32.22922946	     -1.18205306	     -3.51064569	      0.06258677	      0.98937154	     -0.21073107	      0.00000000	      0.50000000	      0.00000000	      0.25000000	     97.84445312	     -2.94919219	     -1.80045379	     79.45277794	      1.38671257	     13.66571068	     -3.03483627	      0.00000000	      0.00000000	     69.88078338	    -12.03477111	     -1.47301657	     73.79531389	      1.28797120	     -9.08018308	     -9.95162341	      0.00000000	      0.00000000	    -33.47159897	     -0.75216580	      4.18701385	     89.27886208	     -6.11915855	     44.77328112	     27.88615073	     38.23022053	      0.00000000	      0.00000000	     88.76623605	    -10.42014673	     47.43654882	     32.05061754	     40.09435614	      0.00000000	      0.00000000
      0.05500000	    -32.19019086	     -1.19104703	     -3.49790048	      0.06256537	      0.98940083	     -0.21067285	      0.00000000	      0.50000000	      0.00000000	      0.25000000	     97.78807390	     -2.93820469	     -1.80260669	     79.42403387	      1.38621090	     13.61986807	     -3.14456378	      0.00000000	      0.00000000	     69.85677089	    -12.04772196	     -1.43811947	     73.83797369	      1.28871575	     -8.87759021	     -9.58816203	      0.00000000	      0.00000000	    -33.49126178	     -0.75248942	      4.17489598	     89.29954541	     -6.45928019	     45.97344735	     28.09589887	     38.41361562	      0.00000000	      0.00000000	     88.84222257	    -10.72125462	     48.68791703	     32.10948494	     40.50970997	      0.00000000	      0.00000000
      0.06000000	    -32.19213270	     -1.21201405	     -3.50293711	      0.06255599	      0.98940239	     -0.21068039	      0.00000000	      0.50000000	      0.00000000	      0.25000000	     97.76299976	     -2.92855073	     -1.82380421	     79.39140217	      1.38564137	     13.62657560	     -3.17867034	      0.00000000	      0.00000000	     69.87880275	    -12.06776223	     -1.41440576	     73.88123424	      1.28947079	     -8.81747387	     -9.54293246	      0.00000000	      0.00000000	    -33.49642184	     -0.72708036	      4.17025027	     89.29718740	     -6.28646698	     45.62193332	     27.95723934	     38.36533835	      0.00000000	      0.00000000	     88.82847774	    -10.59534597	     48.22046588	     31.94797228	     40.47200657	      0.00000000	      0.00000000
      0.06500000	    -32.18190844	     -1.19272893	     -3.48941692	      0.06255060	      0.98946101	     -0.21072522	      0.00000000	      0.50000000	      0.00000000	      0.25000000	     97.73099297	     -2.94112726	     -1.79947492	     79.36173189	      1.38512352	     13.68743360	     -3.14468538	      0.00000000	      0.00000000	     69.86622981	    -12.03440969	     -1.43113973	     73.87701374	      1.28939713	     -8.90888244	     -9.69008904	      0.00000000	      0.00000000	    -33.51274018	     -0.73056232	      4.15945562	     89.29097462	     -6.20133812	     45.25751223	     27.89151432	     38.37180584	      0.00000000	      0.00000000	     88.81119338	    -10.56151234	     47.57532181	     31.97175247	     40.45338407	      0.00000000	      0.00000000
      0.07000000	    -32.20137405	     -1.22017129	     -3.52199177	      0.06252281	      0.98945643	     -0.21066659	      0.00000000	      0.50000000	      0.00000000	      0.25000000	     97.71931225	     -2.89144356	     -1.82785185	     79.31240862	      1.38426267	     13.65961899	     -3.21315293	      0.00000000	      0.00000000	     69.90123746	    -12.09042888	     -1.40712302	     73.90545494	      1.28989352	     -8.82602387	     -9.55202456	      0.00000000	      0.00000000	    -33.49094453	     -0.73112069	      4.23203878	     89.29290310	     -6.49707857	     45.96400617	     28.22222768	     38.19459452	      0.00000000	      0.00000000	     88.85060024	    -10.66568986	     48.24981002	     32.03470220	     40.42890697	      0.00000000	      0.00000000
